/* XPM */
static char *map[] = {
	/* plaid pixmap 
	 * width height ncolors chars_per_pixel */
	"24 24 6 1",
	/* colors */
	"0  c none",
	"1  c #1",
	"2  c #2",
	"3  c #3",
	"4  c #4",
	"5  c #5",
	/* pixels */
	"111111111111111111111111",
	"100000000000000000000001",
	"100000000000000000000001",
	"100000000000000000000001",
	"100000222220000303030001",
	"100000200020000000000001",
	"100000200020000300030001",
	"100000200020000000000001",
	"100000220220000303030001",
	"100000000000000000000001",
	"100000000000000000000001",
	"100000000000000000000001",
	"100000000000000000000001",
	"100000000000000000000001",
	"100000000000000000000001",
	"100000000000000000000001",
	"144444444000000000000001",
	"140400004000000000000001",
	"140000504000000000000001",
	"140400004000000000000001",
	"140444444000000000000001",
	"140000000000000000000001",
	"144444444000000000000001",
	"111111111111111111111111"
};
