/* XPM */
static char *map[] = {
	/* plaid pixmap 
	 * width height ncolors chars_per_pixel */
	"24 24 8 1",
	/* colors */
	"0  c #000044",
	"1  c #013333",
	"2  c #012345",
	"3  c #013462",
	"4  c #012345",
	"5  c #014832",
	"6  c #01aaaa",
	"7  c #010000",
	/* pixels */
	"111111111111111111111111",
	"100000000000000000000001",
	"100000000000000000000001",
	"100000000000000000000001",
	"100000222220000303030001",
	"100000200020000000000001",
	"100000200020000300030001",
	"100000200020000000000001",
	"100000220220000303030001",
	"100000000000000000000001",
	"100000000000000000000001",
	"100000000000000000000001",
	"100000000050600070000001",
	"100000000000000000000001",
	"100000000000000000000001",
	"100000000000000000000001",
	"144444444000000000000001",
	"140400006000000000000001",
	"140000504000000000000001",
	"140400006000000000000001",
	"140444444000000000000001",
	"140000000000000000000001",
	"144444444000000000000001",
	"111111111111111111111111"
};
