/* XPM */
static char *map[] = {
	/* width height ncolors chars_per_pixel */
	"24 24 9 1",
	/* colors */
	"0  c none",
	"1  c #1",
	"2  c #2",
	"3  c #3",
	"4  c #4",
	"5  c #5",
	"6  c #6",
	"7  c #7",
	"8  c #8",
	/* pixels */
  "444444444444444477777777",
  "400000000000000070000007",
  "401000000000000000000007",
  "402000000000000000000007",
  "403000000000000070000007",
  "404000055555555577077777",
  "405000050505050570007771",
  "406000050000000570000008",
  "407000000000000000007771",
  "408000050000000570000008",
  "400000050000000570007771",
  "400000055550555577777771",
  "666666666660666666666666",
  "800000000000000000000004",
  "666666066660666666666666",
  "444444044460622222223333",
  "400000000460620000020002",
  "400000000000620050020002",
  "400000000460620000022022",
  "406060000460000050000002",
  "400500000460620000022022",
  "406060000460620050020002",
  "400000000460620000020002",
  "444444444411122222233333"
};
