/* XPM */
static char *map[] = {
	/* plaid pixmap 
	 * width height ncolors chars_per_pixel */
	"24 24 9 1",
	/* colors */
	"0  c none",
	"1  c #0",
	"2  c #2",
	"3  c #3",
	"4  c #4",
	"5  c #5",
	"6  c #6",
	"7  c #7",
	"8  c #8",
	/* pixels */
	"000000000000000000000000",
	"000000000000000000000000",
	"000000000000000000000000",
	"000000000000000000000000",
	"000000222220000803030000",
	"000000200020000000000000",
	"000000200020000700030000",
	"000000200020000000000000",
	"000000220220000605030000",
	"000000000000000000000000",
	"000000000000000000000000",
	"000000000000000000000000",
	"000000000000000000000000",
	"000000000000000000000000",
	"000000000000000000000000",
	"000000000000000000000000",
	"044444444000000000000000",
	"040400004000000000000000",
	"040000504000000000000000",
	"040400004000000000000000",
	"040444444000000000000000",
	"040000000000000000000000",
	"044444444000000000000000",
	"000000000000000000000000"
};
