/* XPM */
static char *map[] = {
	/* plaid pixmap 
	 * width height ncolors chars_per_pixel */
	"24 24 8 1",
	/* colors */
	"0  c #000078",
	"1  c #013333",
	"2  c #012345",
	"3  c #013462",
	"4  c #014723",
	"5  c #014832",
	"6  c #015678",
	"7  c #011111",
	/* pixels */
	"000000000000000000000000",
	"000000000000000000000000",
	"000000000000000000000000",
	"000000000000000000000000",
	"000000222220000703030000",
	"000000200020000000000000",
	"000000200020000707030000",
	"000000200020000000000000",
	"000000220220000605030000",
	"000000000000000000000000",
	"000000000000000000000000",
	"000000000000000000000000",
	"000000000000000000000000",
	"000000000000000000000000",
	"000000000000000000000000",
	"000000000000000000000000",
	"044444444000000000000000",
	"040400004000000000000000",
	"040000704000000000000000",
	"040400004000000000000000",
	"040444444000000000000000",
	"040000000000000000000000",
	"044444444000000000000000",
	"000000000000000000000000"
};
