/* XPM */
static char *map[] = {
	/* plaid pixmap 
	 * width height ncolors chars_per_pixel */
	"3 24 8 1",
	/* colors */
	"0  c #000000",
	"1  c #013333",
	"2  c #012345",
	"3  c #013462",
	"4  c #014723",
	"5  c #014832",
	"6  c #015678",
	"7  c #010000",
	/* pixels */
	"111",
	"101",
	"101",
	"101",
	"101",
	"101",
	"101",
	"101",
	"101",
	"101",
	"101",
	"101",
	"101",
	"101",
	"101",
	"101",
	"101",
	"101",
	"101",
	"101",
	"101",
	"101",
	"101",
	"111"
};
