/* XPM */
static char *map[] = {
	/* plaid pixmap 
	 * width height ncolors chars_per_pixel */
	"100 100 8 1",
	/* colors */
	"0  c #000011",
	"1  c #013333",
	"2  c #013456",
	"3  c #013462",
	"4  c #014723",
	"5  c #014832",
	"6  c #015678",
	"7  c #011234",
	/* pixels */
	"1111111111111111111111111111111111111111111111111111111111111111111111111111111111111111111111111111",
	"1000000000000000000000000000000000000000000000000000000000000000000000000000000000000000000000000001",
	"1000000000000000000000000000000000000000000000000000000000000000000000000000000000000000000000000001",
	"1000000000000000000000000000000000000000000000000000000000000000000000000000000000000000000000000001",
	"1000002222200000000000000000000000000000000000000000000000000000000000000000000000000000000303030001",
	"1000002000200000000000000000000000000000000000000000000000000000000000000000000000000000000000000001",
	"1000002000200000000000000000000000000000000000000000000000000000000000000000000000000000000300030001",
	"1000002000200000000000000000000000000000000000000000000000000000000000000000000000000000000000000001",
	"1000002202200000000000000000000000000000000000000000000000000000000000000000000000000000000303030001",
	"1000000000000000000000000000000000000000000000000000000000000000000000000000000000000000000000000001",
	"1000000000000000000000000000000000000000000000000000000000000000000000000000000000000000000000000001",
	"1000000000000000000000000000000000000000000000000000000000000000000000000000000000000000000000000001",
	"1000000000000000000000000000000000000000000000000000000000000000000000000000000000000000000000000001",
	"1000000000000000000000000000000000000000000000000000000000000000000000000000000000000000000000000001",
	"1000000000000000000000000000000000000000000000000000000000000000000000000000000000000000000000000001",
	"1000000000000000000000000000000000000000000000000000000000000000000000000000000000000000000000000001",
	"1000000000000000000000000000000000000000000000000000000000000000000000000000000000000000000000000001",
	"1000000000000000000000000000000000000000000000000000000000000000000000000000000000000000000000000001",
	"1000000000000000000000000000000000000000000000000000000000000000000000000000000000000000000000000001",
	"1000000000000000000000000000000000000000000000000000000000000000000000000000000000000000000000000001",
	"1000000000000000000000000000000000000000000000000000000000000000000000000000000000000000000000000001",
	"1000000000000000000000000000000000000000000000000000000000000000000000000000000000000000000000000001",
	"1000000000000000000000000000000000000000000000000000000000000000000000000000000000000000000000000001",
	"1000000000000000000000000000000000000000000000000000000000000000000000000000000000000000000000000001",
	"1000000000000000000000000000000000000000000000000000000000000000000000000000000000000000000000000001",
	"1000000000000000000000000000000000000000000000000000000000000000000000000000000000000000000000000001",
	"1000000000000000000000000000000000000000000000000000000000000000000000000000000000000000000000000001",
	"1000000000000000000000000000000000000000000000000000000000000000000000000000000000000000000000000001",
	"1000000000000000000000000000000000000000000000000000000000000000000000000000000000000000000000000001",
	"1000000000000000000000000000000000000000000000000000000000000000000000000000000000000000000000000001",
	"1000000000000000000000000000000000000000000000000000000000000000000000000000000000000000000000000001",
	"1000000000000000000000000000000000000000000000000000000000000000000000000000000000000000000000000001",
	"1000000000000000000000000000000000000000000000000000000000000000000000000000000000000000000000000001",
	"1000000000000000000000000000000000000000000000000000000000000000000000000000000000000000000000000001",
	"1000000000000000000000000000000000000000000000000000000000000000000000000000000000000000000000000001",
	"1000000000000000000000000000000000000000000000000000000000000000000000000000000000000000000000000001",
	"1000000000000000000000000000000000000000000000000000000000000000000000000000000000000000000000000001",
	"1000000000000000000000000000000000000000000000000000000000000000000000000000000000000000000000000001",
	"1000000000000000000000000000000000000000000000000000000000000000000000000000000000000000000000000001",
	"1000000000000000000000000000000000000000000000000000000000000000000000000000000000000000000000000001",
	"1000000000000000000000000000000000000000000000000000000000000000000000000000000000000000000000000001",
	"1000000000000000000000000000000000000000000000000000000000000000000000000000000000000000000000000001",
	"1000000000000000000000000000000000000000000000000000000000000000000000000000000000000000000000000001",
	"1000000000000000000000000000000000000000000000000000000000000000000000000000000000000000000000000001",
	"1000000000000000000000000000000000000000000000000000000000000000000000000000000000000000000000000001",
	"1000000000000000000000000000000000000000000000000000000000000000000000000000000000000000000000000001",
	"1000000000000000000000000000000000000000000000000000000000000000000000000000000000000000000000000001",
	"1000000000000000000000000000000000000000000000000000000000000000000000000000000000000000000000000001",
	"1000000000000000000000000000000000000000000000000000000000000000000000000000000000000000000000000001",
	"1000000000000000000000000000000000000000000000000000000000000000000000000000000000000000000000000001",
	"1000000000000000000000000000000000000000000000000000000000000000000000000000000000000000000000000001",
	"1000000000000000000000000000000000000000000000000000000000000000000000000000000000000000000000000001",
	"1000000000000000000000000000000000000000000000000000000000000000000000000000000000000000000000000001",
	"1000000000000000000000000000000000000000000000000000000000000000000000000000000000000000000000000001",
	"1000000000000000000000000000000000000000000000000000000000000000000000000000000000000000000000000001",
	"1000000000000000000000000000000000000000000000000000000000000000000000000000000000000000000000000001",
	"1000000000000000000000000000000000000000000000000000000000000000000000000000000000000000000000000001",
	"1000000000000000000000000000000000000000000000000000000000000000000000000000000000000000000000000001",
	"1000000000000000000000000000000000000000000000000000000000000000000000000000000000000000000000000001",
	"1000000000000000000000000000000000000000000000000000000000000000000000000000000000000000000000000001",
	"1000000000000000000000000000000000000000000000000000000000000000000000000000000000000000000000000001",
	"1000000000000000000000000000000000000000000000000000000000000000000000000000000000000000000000000001",
	"1000000000000000000000000000000000000000000000000000000000000000000000000000000000000000000000000001",
	"1000000000000000000000000000000000000000000000000000000000000000000000000000000000000000000000000001",
	"1000000000000000000000000000000000000000000000000000000000000000000000000000000000000000000000000001",
	"1000000000000000000000000000000000000000000000000000000000000000000000000000000000000000000000000001",
	"1000000000000000000000000000000000000000000000000000000000000000000000000000000000000000000000000001",
	"1000000000000000000000000000000000000000000000000000000000000000000000000000000000000000000000000001",
	"1000000000000000000000000000000000000000000000000000000000000000000000000000000000000000000000000001",
	"1000000000000000000000000000000000000000000000000000000000000000000000000000000000000000000000000001",
	"1000000000000000000000000000000000000000000000000000000000000000000000000000000000000000000000000001",
	"1000000000000000000000000000000000000000000000000000000000000000000000000000000000000000000000000001",
	"1000000000000000000000000000000000000000000000000000000000000000000000000000000000000000000000000001",
	"1000000000000000000000000000000000000000000000000000000000000000000000000000000000000000000000000001",
	"1000000000000000000000000000000000000000000000000000000000000000000000000000000000000000000000000001",
	"1000000000000000000000000000000000000000000000000000000000000000000000000000000000000000000000000001",
	"1000000000000000000000000000000000000000000000000000000000000000000000000000000000000000000000000001",
	"1000000000000000000000000000000000000000000000000000000000000000000000000000000000000000000000000001",
	"1000000000000000000000000000000000000000000000000000000000000000000000000000000000000000000000000001",
	"1000000000000000000000000000000000000000000000000000000000000000000000000000000000000000000000000001",
	"1000000000000000000000000000000000000000000000000000000000000000000000000000000000000000000000000001",
	"1000000000000000000000000000000000000000000000000000000000000000000000000000000000000000000000000001",
	"1000000000000000000000000000000000000000000000000000000000000000000000000000000000000000000000000001",
	"1000000000000000000000000000000000000000000000000000000000000000000000000000000000000000000000000001",
	"1000000000000000000000000000000000000000000000000000000000000000000000000000000000000000000000000001",
	"1000000000000000000000000000000000000000000000000000000000000000000000000000000000000000000000000001",
	"1000000000000000000000000000000000000000000000000000000000000000000000000000000000000000000000000001",
	"1000000000000000000000000000000000000000000000000000000000000000000000000000000000000000000000000001",
	"1000000000500000000000000000000000000000000000000000000000000000000000000000000000000000600070000001",
	"1000000000000000000000000000000000000000000000000000000000000000000000000000000000000000000000000001",
	"1000000000000000000000000000000000000000000000000000000000000000000000000000000000000000000000000001",
	"1000000000000000000000000000000000000000000000000000000000000000000000000000000000000000000000000001",
	"1444444440000000000000000000000000000000000000000000000000000000000000000000000000000000000000000001",
	"1404000010000000000000000000000000000000000000000000000000000000000000000000000000000000000000000001",
	"1400005020000000000000000000000000000000000000000000000000000000000000000000000000000000000000000001",
	"1404000030000000000000000000000000000000000000000000000000000000000000000000000000000000000000000001",
	"1404444440000000000000000000000000000000000000000000000000000000000000000000000000000000000000000001",
	"1400000000000000000000000000000000000000000000000000000000000000000000000000000000000000000000000001",
	"1444444440000000000000000000000000000000000000000000000000000000000000000000000000000000000000000001",
	"1111111111111111111111111111111111111111111111111111111111111111111111111111111111111111111111111111"
};
