/* XPM */
static char *map[] = {
	/* plaid pixmap 
	 * width height ncolors chars_per_pixel */
	"7 9 8 1",
	/* colors */
	"0  c #000022",
	"1  c #01aaaa",
	"2  c #00009a",
	"3  c #013462",
	"4  c #014723",
	"5  c #000012",
	"6  c #000078",
	"7  c #000045",
	/* pixels */
	"1111111",
	"1300021",
	"1000001",
	"1000001",
	"1001001",
	"1000001",
	"1000001",
	"1400051",
	"1111111"
};
