/* XPM */
static char * PDF_xpm[] = {
"34 34 3 1",
" 	c None",
".	c #FFFF00000000",
"X	c #000000000000",
"                                  ",
"            ...                   ",
"           .. ..                  ",
"           ..  .                  ",
"           ..  .                  ",
"           ..  .                  ",
"           ..  .                  ",
"            .  .                  ",
"            .. .                  ",
"           X ...   X              ",
"             ...                  ",
"        X    ...      X           ",
"            .....                 ",
"            .. ..                 ",
"      X     ..  ..      X         ",
"           ..    ..               ",
"           ..     ...             ",
"           ..      ...            ",
"     X    ..        ............  ",
"          ..     .........     .. ",
"         ...  .....     ....    . ",
"         ..  ...          ......  ",
"      X  .....          X         ",
"        ...                       ",
"       ...                        ",
"      ...             X           ",
"    .. ..                         ",
"   ..  .   X       X              ",
"  ..  ..       X                  ",
" ..  ..                           ",
" .. ..                            ",
" ....                             ",
" ...                              ",
"                                  "};
